<svg xmlns="http://www.w3.org/2000/svg" version="1.1" xmlns:xlink="http://www.w3.org/1999/xlink" xmlns:svgjs="http://svgjs.dev/svgjs" width="1440" height="560" preserveAspectRatio="none" viewBox="0 0 1440 560"><g mask="url(&quot;#SvgjsMask1099&quot;)" fill="none"><rect width="1440" height="560" x="0" y="0" fill="rgba(54, 173, 106, 1)"></rect><path d="M0,424.699C77.384,412.124,125.464,337.828,182.63,284.177C229.634,240.063,273.546,195.615,304.399,139.015C337.194,78.852,373.371,15.491,366.236,-52.657C359.006,-121.709,313.918,-180.272,265.736,-230.261C219.337,-278.4,157.966,-303.356,97.369,-331.609C25.941,-364.911,-44.421,-430.959,-120.484,-410.332C-196.42,-389.739,-221.103,-295.431,-268.267,-232.455C-311.633,-174.551,-363.953,-124.363,-386.206,-55.528C-411.335,22.201,-433.012,108.06,-402.9,183.998C-372.367,260.999,-296.333,307.97,-225.223,350.453C-155.96,391.832,-79.637,437.64,0,424.699" fill="#237145"></path><path d="M1440 1011.463C1527.563 997.467 1613.773 992.533 1694.753 956.403 1787.134 915.1859999999999 1902.2350000000001 882.19 1940.045 788.363 1977.9070000000002 694.406 1905.718 594.716 1879.9859999999999 496.74 1857.4769999999999 411.036 1856.858 316.038 1798.4859999999999 249.37 1740.225 182.82799999999997 1643.965 174.94400000000002 1564.408 136.30599999999998 1465.52 88.27999999999997 1381.777-27.000999999999976 1273.997-5.352999999999952 1167.737 15.990000000000009 1127.06 146.46699999999998 1066.455 236.32100000000003 1012.915 315.7 957.813 393.993 941.058 488.26300000000003 923.938 584.581 939.972 681.427 970.842 774.2570000000001 1004.594 875.7529999999999 1031.465 998.902 1126.9189999999999 1047.164 1222.593 1095.537 1334.136 1028.384 1440 1011.463" fill="#64cf93"></path></g><defs><mask id="SvgjsMask1099"><rect width="1440" height="560" fill="#ffffff"></rect></mask></defs></svg>